<mxfile host="Electron" modified="2024-04-29T16:10:15.510Z" agent="Mozilla/5.0 (Macintosh; Intel Mac OS X 10_15_7) AppleWebKit/537.36 (KHTML, like Gecko) draw.io/24.2.5 Chrome/120.0.6099.109 Electron/28.1.0 Safari/537.36" etag="pjUxCLfutwKTBovxdFjp" version="24.2.5" type="device">
  <diagram name="Page-1" id="4thUxMshGZFuXkVTkenD">
    <mxGraphModel dx="1242" dy="907" grid="1" gridSize="10" guides="1" tooltips="1" connect="1" arrows="1" fold="1" page="1" pageScale="1" pageWidth="827" pageHeight="1169" math="0" shadow="0">
      <root>
        <mxCell id="0" />
        <mxCell id="1" parent="0" />
        <mxCell id="cwIJgDVgUFUMkKm4N5Q_-13" style="edgeStyle=orthogonalEdgeStyle;rounded=0;orthogonalLoop=1;jettySize=auto;html=1;exitX=1;exitY=0.5;exitDx=0;exitDy=0;entryX=0;entryY=0.5;entryDx=0;entryDy=0;endArrow=none;endFill=0;" edge="1" parent="1" source="cwIJgDVgUFUMkKm4N5Q_-1" target="cwIJgDVgUFUMkKm4N5Q_-6">
          <mxGeometry relative="1" as="geometry" />
        </mxCell>
        <mxCell id="cwIJgDVgUFUMkKm4N5Q_-1" value="customer" style="rounded=0;whiteSpace=wrap;html=1;" vertex="1" parent="1">
          <mxGeometry x="40" y="360" width="80" height="40" as="geometry" />
        </mxCell>
        <mxCell id="cwIJgDVgUFUMkKm4N5Q_-19" style="edgeStyle=orthogonalEdgeStyle;rounded=0;orthogonalLoop=1;jettySize=auto;html=1;exitX=0;exitY=0.5;exitDx=0;exitDy=0;entryX=1;entryY=0.5;entryDx=0;entryDy=0;endArrow=none;endFill=0;" edge="1" parent="1" source="cwIJgDVgUFUMkKm4N5Q_-2" target="cwIJgDVgUFUMkKm4N5Q_-10">
          <mxGeometry relative="1" as="geometry" />
        </mxCell>
        <mxCell id="cwIJgDVgUFUMkKm4N5Q_-2" value="order item" style="rounded=0;whiteSpace=wrap;html=1;" vertex="1" parent="1">
          <mxGeometry x="360" y="640" width="80" height="40" as="geometry" />
        </mxCell>
        <mxCell id="cwIJgDVgUFUMkKm4N5Q_-15" style="edgeStyle=orthogonalEdgeStyle;rounded=0;orthogonalLoop=1;jettySize=auto;html=1;exitX=1;exitY=0.5;exitDx=0;exitDy=0;entryX=0;entryY=0.5;entryDx=0;entryDy=0;endArrow=none;endFill=0;" edge="1" parent="1" source="cwIJgDVgUFUMkKm4N5Q_-3" target="cwIJgDVgUFUMkKm4N5Q_-9">
          <mxGeometry relative="1" as="geometry" />
        </mxCell>
        <mxCell id="cwIJgDVgUFUMkKm4N5Q_-17" style="edgeStyle=orthogonalEdgeStyle;rounded=0;orthogonalLoop=1;jettySize=auto;html=1;exitX=0.5;exitY=1;exitDx=0;exitDy=0;entryX=0.5;entryY=0;entryDx=0;entryDy=0;endArrow=none;endFill=0;" edge="1" parent="1" source="cwIJgDVgUFUMkKm4N5Q_-3" target="cwIJgDVgUFUMkKm4N5Q_-7">
          <mxGeometry relative="1" as="geometry" />
        </mxCell>
        <mxCell id="cwIJgDVgUFUMkKm4N5Q_-3" value="order" style="rounded=0;whiteSpace=wrap;html=1;" vertex="1" parent="1">
          <mxGeometry x="360" y="360" width="80" height="40" as="geometry" />
        </mxCell>
        <mxCell id="cwIJgDVgUFUMkKm4N5Q_-4" value="review" style="rounded=0;whiteSpace=wrap;html=1;" vertex="1" parent="1">
          <mxGeometry x="40" y="920" width="80" height="40" as="geometry" />
        </mxCell>
        <mxCell id="cwIJgDVgUFUMkKm4N5Q_-5" value="payment" style="rounded=0;whiteSpace=wrap;html=1;" vertex="1" parent="1">
          <mxGeometry x="680" y="360" width="80" height="40" as="geometry" />
        </mxCell>
        <mxCell id="cwIJgDVgUFUMkKm4N5Q_-14" style="edgeStyle=orthogonalEdgeStyle;rounded=0;orthogonalLoop=1;jettySize=auto;html=1;exitX=1;exitY=0.5;exitDx=0;exitDy=0;entryX=0;entryY=0.5;entryDx=0;entryDy=0;endArrow=none;endFill=0;" edge="1" parent="1" source="cwIJgDVgUFUMkKm4N5Q_-6" target="cwIJgDVgUFUMkKm4N5Q_-3">
          <mxGeometry relative="1" as="geometry" />
        </mxCell>
        <mxCell id="cwIJgDVgUFUMkKm4N5Q_-6" value="places" style="rhombus;whiteSpace=wrap;html=1;" vertex="1" parent="1">
          <mxGeometry x="200" y="340" width="80" height="80" as="geometry" />
        </mxCell>
        <mxCell id="cwIJgDVgUFUMkKm4N5Q_-18" style="edgeStyle=orthogonalEdgeStyle;rounded=0;orthogonalLoop=1;jettySize=auto;html=1;exitX=0.5;exitY=1;exitDx=0;exitDy=0;entryX=0.5;entryY=0;entryDx=0;entryDy=0;endArrow=none;endFill=0;" edge="1" parent="1" source="cwIJgDVgUFUMkKm4N5Q_-7" target="cwIJgDVgUFUMkKm4N5Q_-2">
          <mxGeometry relative="1" as="geometry" />
        </mxCell>
        <mxCell id="cwIJgDVgUFUMkKm4N5Q_-7" value="contains" style="rhombus;whiteSpace=wrap;html=1;" vertex="1" parent="1">
          <mxGeometry x="360" y="480" width="80" height="80" as="geometry" />
        </mxCell>
        <mxCell id="cwIJgDVgUFUMkKm4N5Q_-22" style="edgeStyle=orthogonalEdgeStyle;rounded=0;orthogonalLoop=1;jettySize=auto;html=1;exitX=0.5;exitY=1;exitDx=0;exitDy=0;entryX=0.5;entryY=0;entryDx=0;entryDy=0;endArrow=none;endFill=0;" edge="1" parent="1" source="cwIJgDVgUFUMkKm4N5Q_-8" target="cwIJgDVgUFUMkKm4N5Q_-4">
          <mxGeometry relative="1" as="geometry" />
        </mxCell>
        <mxCell id="cwIJgDVgUFUMkKm4N5Q_-8" value="has" style="rhombus;whiteSpace=wrap;html=1;" vertex="1" parent="1">
          <mxGeometry x="40" y="760" width="80" height="80" as="geometry" />
        </mxCell>
        <mxCell id="cwIJgDVgUFUMkKm4N5Q_-16" style="edgeStyle=orthogonalEdgeStyle;rounded=0;orthogonalLoop=1;jettySize=auto;html=1;exitX=1;exitY=0.5;exitDx=0;exitDy=0;entryX=0;entryY=0.5;entryDx=0;entryDy=0;endArrow=none;endFill=0;" edge="1" parent="1" source="cwIJgDVgUFUMkKm4N5Q_-9" target="cwIJgDVgUFUMkKm4N5Q_-5">
          <mxGeometry relative="1" as="geometry" />
        </mxCell>
        <mxCell id="cwIJgDVgUFUMkKm4N5Q_-9" value="associate" style="rhombus;whiteSpace=wrap;html=1;" vertex="1" parent="1">
          <mxGeometry x="520" y="340" width="80" height="80" as="geometry" />
        </mxCell>
        <mxCell id="cwIJgDVgUFUMkKm4N5Q_-20" style="edgeStyle=orthogonalEdgeStyle;rounded=0;orthogonalLoop=1;jettySize=auto;html=1;exitX=0;exitY=0.5;exitDx=0;exitDy=0;entryX=1;entryY=0.5;entryDx=0;entryDy=0;endArrow=none;endFill=0;" edge="1" parent="1" source="cwIJgDVgUFUMkKm4N5Q_-10" target="cwIJgDVgUFUMkKm4N5Q_-12">
          <mxGeometry relative="1" as="geometry" />
        </mxCell>
        <mxCell id="cwIJgDVgUFUMkKm4N5Q_-10" value="includes" style="rhombus;whiteSpace=wrap;html=1;" vertex="1" parent="1">
          <mxGeometry x="200" y="620" width="80" height="80" as="geometry" />
        </mxCell>
        <mxCell id="cwIJgDVgUFUMkKm4N5Q_-21" style="edgeStyle=orthogonalEdgeStyle;rounded=0;orthogonalLoop=1;jettySize=auto;html=1;exitX=0.5;exitY=1;exitDx=0;exitDy=0;entryX=0.5;entryY=0;entryDx=0;entryDy=0;endArrow=none;endFill=0;" edge="1" parent="1" source="cwIJgDVgUFUMkKm4N5Q_-12" target="cwIJgDVgUFUMkKm4N5Q_-8">
          <mxGeometry relative="1" as="geometry" />
        </mxCell>
        <mxCell id="cwIJgDVgUFUMkKm4N5Q_-12" value="product" style="rounded=0;whiteSpace=wrap;html=1;" vertex="1" parent="1">
          <mxGeometry x="40" y="640" width="80" height="40" as="geometry" />
        </mxCell>
        <mxCell id="cwIJgDVgUFUMkKm4N5Q_-25" value="(0, n)" style="text;html=1;align=center;verticalAlign=middle;whiteSpace=wrap;rounded=0;" vertex="1" parent="1">
          <mxGeometry x="130" y="350" width="60" height="30" as="geometry" />
        </mxCell>
        <mxCell id="cwIJgDVgUFUMkKm4N5Q_-46" value="(1, 1)" style="text;html=1;align=center;verticalAlign=middle;whiteSpace=wrap;rounded=0;" vertex="1" parent="1">
          <mxGeometry x="290" y="350" width="60" height="30" as="geometry" />
        </mxCell>
        <mxCell id="cwIJgDVgUFUMkKm4N5Q_-48" value="(1, 1)" style="text;html=1;align=center;verticalAlign=middle;whiteSpace=wrap;rounded=0;" vertex="1" parent="1">
          <mxGeometry x="610" y="350" width="60" height="30" as="geometry" />
        </mxCell>
        <mxCell id="cwIJgDVgUFUMkKm4N5Q_-49" value="(1, 1)" style="text;html=1;align=center;verticalAlign=middle;whiteSpace=wrap;rounded=0;" vertex="1" parent="1">
          <mxGeometry x="450" y="350" width="60" height="30" as="geometry" />
        </mxCell>
        <mxCell id="cwIJgDVgUFUMkKm4N5Q_-50" value="(1, n)" style="text;html=1;align=center;verticalAlign=middle;whiteSpace=wrap;rounded=0;" vertex="1" parent="1">
          <mxGeometry x="400" y="430" width="60" height="30" as="geometry" />
        </mxCell>
        <mxCell id="cwIJgDVgUFUMkKm4N5Q_-51" value="(1, 1)" style="text;html=1;align=center;verticalAlign=middle;whiteSpace=wrap;rounded=0;" vertex="1" parent="1">
          <mxGeometry x="80" y="870" width="60" height="30" as="geometry" />
        </mxCell>
        <mxCell id="cwIJgDVgUFUMkKm4N5Q_-52" value="(1, n)" style="text;html=1;align=center;verticalAlign=middle;whiteSpace=wrap;rounded=0;" vertex="1" parent="1">
          <mxGeometry x="400" y="580" width="60" height="30" as="geometry" />
        </mxCell>
        <mxCell id="cwIJgDVgUFUMkKm4N5Q_-53" value="(0, n)" style="text;html=1;align=center;verticalAlign=middle;whiteSpace=wrap;rounded=0;" vertex="1" parent="1">
          <mxGeometry x="80" y="710" width="60" height="30" as="geometry" />
        </mxCell>
        <mxCell id="cwIJgDVgUFUMkKm4N5Q_-54" value="(1, 1)" style="text;html=1;align=center;verticalAlign=middle;whiteSpace=wrap;rounded=0;" vertex="1" parent="1">
          <mxGeometry x="290" y="625" width="60" height="30" as="geometry" />
        </mxCell>
        <mxCell id="cwIJgDVgUFUMkKm4N5Q_-55" value="(1, 1)" style="text;html=1;align=center;verticalAlign=middle;whiteSpace=wrap;rounded=0;" vertex="1" parent="1">
          <mxGeometry x="130" y="625" width="60" height="30" as="geometry" />
        </mxCell>
      </root>
    </mxGraphModel>
  </diagram>
</mxfile>
